<svg id="visual" viewBox="0 0 900 600" width="900" height="600" xmlns="http://www.w3.org/2000/svg" xmlns:xlink="http://www.w3.org/1999/xlink" version="1.1"><path d="M0 61L18.8 62C37.7 63 75.3 65 112.8 65C150.3 65 187.7 63 225.2 56C262.7 49 300.3 37 337.8 34C375.3 31 412.7 37 450.2 38C487.7 39 525.3 35 562.8 38C600.3 41 637.7 51 675.2 55C712.7 59 750.3 57 787.8 54C825.3 51 862.7 47 881.3 45L900 43L900 0L881.3 0C862.7 0 825.3 0 787.8 0C750.3 0 712.7 0 675.2 0C637.7 0 600.3 0 562.8 0C525.3 0 487.7 0 450.2 0C412.7 0 375.3 0 337.8 0C300.3 0 262.7 0 225.2 0C187.7 0 150.3 0 112.8 0C75.3 0 37.7 0 18.8 0L0 0Z" fill="#004cbb"></path><path d="M0 97L18.8 100C37.7 103 75.3 109 112.8 114C150.3 119 187.7 123 225.2 115C262.7 107 300.3 87 337.8 79C375.3 71 412.7 75 450.2 77C487.7 79 525.3 79 562.8 88C600.3 97 637.7 115 675.2 124C712.7 133 750.3 133 787.8 134C825.3 135 862.7 137 881.3 138L900 139L900 41L881.3 43C862.7 45 825.3 49 787.8 52C750.3 55 712.7 57 675.2 53C637.7 49 600.3 39 562.8 36C525.3 33 487.7 37 450.2 36C412.7 35 375.3 29 337.8 32C300.3 35 262.7 47 225.2 54C187.7 61 150.3 63 112.8 63C75.3 63 37.7 61 18.8 60L0 59Z" fill="#005ce5"></path><path d="M0 133L18.8 139C37.7 145 75.3 157 112.8 163C150.3 169 187.7 169 225.2 160C262.7 151 300.3 133 337.8 123C375.3 113 412.7 111 450.2 111C487.7 111 525.3 113 562.8 124C600.3 135 637.7 155 675.2 168C712.7 181 750.3 187 787.8 187C825.3 187 862.7 181 881.3 178L900 175L900 137L881.3 136C862.7 135 825.3 133 787.8 132C750.3 131 712.7 131 675.2 122C637.7 113 600.3 95 562.8 86C525.3 77 487.7 77 450.2 75C412.7 73 375.3 69 337.8 77C300.3 85 262.7 105 225.2 113C187.7 121 150.3 117 112.8 112C75.3 107 37.7 101 18.8 98L0 95Z" fill="#2573ff"></path><path d="M0 205L18.8 217C37.7 229 75.3 253 112.8 263C150.3 273 187.7 269 225.2 250C262.7 231 300.3 197 337.8 186C375.3 175 412.7 187 450.2 204C487.7 221 525.3 243 562.8 254C600.3 265 637.7 265 675.2 273C712.7 281 750.3 297 787.8 310C825.3 323 862.7 333 881.3 338L900 343L900 173L881.3 176C862.7 179 825.3 185 787.8 185C750.3 185 712.7 179 675.2 166C637.7 153 600.3 133 562.8 122C525.3 111 487.7 109 450.2 109C412.7 109 375.3 111 337.8 121C300.3 131 262.7 149 225.2 158C187.7 167 150.3 167 112.8 161C75.3 155 37.7 143 18.8 137L0 131Z" fill="#5892ff"></path><path d="M0 475L18.8 454C37.7 433 75.3 391 112.8 378C150.3 365 187.7 381 225.2 385C262.7 389 300.3 381 337.8 379C375.3 377 412.7 381 450.2 382C487.7 383 525.3 381 562.8 391C600.3 401 637.7 423 675.2 427C712.7 431 750.3 417 787.8 411C825.3 405 862.7 407 881.3 408L900 409L900 341L881.3 336C862.7 331 825.3 321 787.8 308C750.3 295 712.7 279 675.2 271C637.7 263 600.3 263 562.8 252C525.3 241 487.7 219 450.2 202C412.7 185 375.3 173 337.8 184C300.3 195 262.7 229 225.2 248C187.7 267 150.3 271 112.8 261C75.3 251 37.7 227 18.8 215L0 203Z" fill="#6198ff"></path><path d="M0 511L18.8 500C37.7 489 75.3 467 112.8 454C150.3 441 187.7 437 225.2 449C262.7 461 300.3 489 337.8 492C375.3 495 412.7 473 450.2 465C487.7 457 525.3 463 562.8 467C600.3 471 637.7 473 675.2 471C712.7 469 750.3 463 787.8 464C825.3 465 862.7 473 881.3 477L900 481L900 407L881.3 406C862.7 405 825.3 403 787.8 409C750.3 415 712.7 429 675.2 425C637.7 421 600.3 399 562.8 389C525.3 379 487.7 381 450.2 380C412.7 379 375.3 375 337.8 377C300.3 379 262.7 387 225.2 383C187.7 379 150.3 363 112.8 376C75.3 389 37.7 431 18.8 452L0 473Z" fill="#5892ff"></path><path d="M0 553L18.8 546C37.7 539 75.3 525 112.8 517C150.3 509 187.7 507 225.2 511C262.7 515 300.3 525 337.8 530C375.3 535 412.7 535 450.2 533C487.7 531 525.3 527 562.8 523C600.3 519 637.7 515 675.2 515C712.7 515 750.3 519 787.8 521C825.3 523 862.7 523 881.3 523L900 523L900 479L881.3 475C862.7 471 825.3 463 787.8 462C750.3 461 712.7 467 675.2 469C637.7 471 600.3 469 562.8 465C525.3 461 487.7 455 450.2 463C412.7 471 375.3 493 337.8 490C300.3 487 262.7 459 225.2 447C187.7 435 150.3 439 112.8 452C75.3 465 37.7 487 18.8 498L0 509Z" fill="#2573ff"></path><path d="M0 589L18.8 583C37.7 577 75.3 565 112.8 560C150.3 555 187.7 557 225.2 560C262.7 563 300.3 567 337.8 569C375.3 571 412.7 571 450.2 571C487.7 571 525.3 571 562.8 569C600.3 567 637.7 563 675.2 559C712.7 555 750.3 551 787.8 549C825.3 547 862.7 547 881.3 547L900 547L900 521L881.3 521C862.7 521 825.3 521 787.8 519C750.3 517 712.7 513 675.2 513C637.7 513 600.3 517 562.8 521C525.3 525 487.7 529 450.2 531C412.7 533 375.3 533 337.8 528C300.3 523 262.7 513 225.2 509C187.7 505 150.3 507 112.8 515C75.3 523 37.7 537 18.8 544L0 551Z" fill="#005ce5"></path><path d="M0 601L18.8 601C37.7 601 75.3 601 112.8 601C150.3 601 187.7 601 225.2 601C262.7 601 300.3 601 337.8 601C375.3 601 412.7 601 450.2 601C487.7 601 525.3 601 562.8 601C600.3 601 637.7 601 675.2 601C712.7 601 750.3 601 787.8 601C825.3 601 862.7 601 881.3 601L900 601L900 545L881.3 545C862.7 545 825.3 545 787.8 547C750.3 549 712.7 553 675.2 557C637.7 561 600.3 565 562.8 567C525.3 569 487.7 569 450.2 569C412.7 569 375.3 569 337.8 567C300.3 565 262.7 561 225.2 558C187.7 555 150.3 553 112.8 558C75.3 563 37.7 575 18.8 581L0 587Z" fill="#004cbb"></path></svg>