<svg width="1928" height="1088" viewBox="0 0 1928 1088" fill="none" xmlns="http://www.w3.org/2000/svg">
<g clip-path="url(#clip0_1_3)" filter="url(#filter0_d_1_3)">
<rect width="1920" height="1080" transform="translate(4)" fill="white"/>
<g clip-path="url(#clip1_1_3)">
<rect width="1920" height="736" transform="translate(4)" fill="url(#paint0_linear_1_3)"/>
<path d="M523 331L521.877 334.455H518.245L521.184 336.59L520.061 340.045L523 337.91L525.939 340.045L524.816 336.59L527.755 334.455H524.123L523 331Z" fill="white"/>
<path d="M1721 194.222L1719.88 197.754H1716.24L1719.18 199.937L1718.06 203.468L1721 201.286L1723.94 203.468L1722.82 199.937L1725.76 197.754H1722.12L1721 194.222Z" fill="white"/>
<path d="M1006 172.756L1004.88 176.287H1001.24L1004.18 178.47L1003.06 182.002L1006 179.819L1008.94 182.002L1007.82 178.47L1010.76 176.287H1007.12L1006 172.756Z" fill="white"/>
<path d="M1010.23 435.129L1011.12 438.728L1008.05 440.711L1011.68 440.952L1012.57 444.551L1013.92 441.101L1017.54 441.343L1014.75 438.969L1016.09 435.52L1013.02 437.502L1010.23 435.129Z" fill="white"/>
<path d="M1701 518.267L1699.88 521.798H1696.24L1699.18 523.981L1698.06 527.513L1701 525.33L1703.94 527.513L1702.82 523.981L1705.76 521.798H1702.12L1701 518.267Z" fill="white"/>
<path d="M149 57L147.877 60.4549H144.245L147.184 62.5902L146.061 66.0451L149 63.9098L151.939 66.0451L150.816 62.5902L153.755 60.4549H150.123L149 57Z" fill="white"/>
<path d="M260 557L258.877 560.455H255.245L258.184 562.59L257.061 566.045L260 563.91L262.939 566.045L261.816 562.59L264.755 560.455H261.123L260 557Z" fill="white"/>
<path d="M673 87L674.123 90.4549H677.755L674.816 92.5902L675.939 96.0451L673 93.9098L670.061 96.0451L671.184 92.5902L668.245 90.4549H671.877L673 87Z" fill="white"/>
<path d="M254.5 157L253.714 159.418H251.171L253.229 160.913L252.443 163.332L254.5 161.837L256.557 163.332L255.771 160.913L257.829 159.418H255.286L254.5 157Z" fill="white"/>
<path d="M1080.5 627.644L1079.71 630.117H1077.17L1079.23 631.645L1078.44 634.117L1080.5 632.589L1082.56 634.117L1081.77 631.645L1083.83 630.117H1081.29L1080.5 627.644Z" fill="white"/>
<path d="M1486.5 665.467L1485.71 667.939H1483.17L1485.23 669.467L1484.44 671.939L1486.5 670.411L1488.56 671.939L1487.77 669.467L1489.83 667.939H1487.29L1486.5 665.467Z" fill="white"/>
<path d="M1320.5 680.8L1319.71 683.272H1317.17L1319.23 684.8L1318.44 687.272L1320.5 685.744L1322.56 687.272L1321.77 684.8L1323.83 683.272H1321.29L1320.5 680.8Z" fill="white"/>
<path d="M1858.5 63.3778L1857.71 65.85H1855.17L1857.23 67.3779L1856.44 69.8501L1858.5 68.3222L1860.56 69.8501L1859.77 67.3779L1861.83 65.85H1859.29L1858.5 63.3778Z" fill="white"/>
<path d="M1729.5 646.044L1728.71 648.517H1726.17L1728.23 650.045L1727.44 652.517L1729.5 650.989L1731.56 652.517L1730.77 650.045L1732.83 648.517H1730.29L1729.5 646.044Z" fill="white"/>
<path d="M689.5 455L688.714 457.418H686.171L688.229 458.913L687.443 461.332L689.5 459.837L691.557 461.332L690.771 458.913L692.829 457.418H690.286L689.5 455Z" fill="white"/>
<path d="M326.5 341L325.939 342.727H324.122L325.592 343.795L325.031 345.523L326.5 344.455L327.969 345.523L327.408 343.795L328.878 342.727H327.061L326.5 341Z" fill="white"/>
<path d="M477.5 172L476.939 173.727H475.122L476.592 174.795L476.031 176.523L477.5 175.455L478.969 176.523L478.408 174.795L479.878 173.727H478.061L477.5 172Z" fill="white"/>
<path d="M753.5 263L752.939 264.727H751.122L752.592 265.795L752.031 267.523L753.5 266.455L754.969 267.523L754.408 265.795L755.878 264.727H754.061L753.5 263Z" fill="white"/>
<path d="M683.5 605L682.939 606.727H681.122L682.592 607.795L682.031 609.523L683.5 608.455L684.969 609.523L684.408 607.795L685.878 606.727H684.061L683.5 605Z" fill="white"/>
<path d="M115.5 198L114.939 199.727H113.122L114.592 200.795L114.031 202.523L115.5 201.455L116.969 202.523L116.408 200.795L117.878 199.727H116.061L115.5 198Z" fill="white"/>
<path d="M120.5 381L119.939 382.727H118.122L119.592 383.795L119.031 385.523L120.5 384.455L121.969 385.523L121.408 383.795L122.878 382.727H121.061L120.5 381Z" fill="white"/>
<path d="M472.5 489L471.939 490.727H470.122L471.592 491.795L471.031 493.523L472.5 492.455L473.969 493.523L473.408 491.795L474.878 490.727H473.061L472.5 489Z" fill="white"/>
<path d="M1037.5 90.9778L1036.94 92.7436H1035.12L1036.59 93.835L1036.03 95.6008L1037.5 94.5095L1038.97 95.6008L1038.41 93.835L1039.88 92.7436H1038.06L1037.5 90.9778Z" fill="white"/>
<path d="M1503.5 90.9778L1502.94 92.7436H1501.12L1502.59 93.835L1502.03 95.6008L1503.5 94.5095L1504.97 95.6008L1504.41 93.835L1505.88 92.7436H1504.06L1503.5 90.9778Z" fill="white"/>
<path d="M1290.5 58.2667L1289.94 60.0325H1288.12L1289.59 61.1239L1289.03 62.8897L1290.5 61.7984L1291.97 62.8897L1291.41 61.1239L1292.88 60.0325H1291.06L1290.5 58.2667Z" fill="white"/>
<path d="M899.5 311.778L898.939 313.544H897.122L898.592 314.635L898.031 316.401L899.5 315.309L900.969 316.401L900.408 314.635L901.878 313.544H900.061L899.5 311.778Z" fill="white"/>
<path d="M924.5 553.022L923.939 554.788H922.122L923.592 555.879L923.031 557.645L924.5 556.554L925.969 557.645L925.408 555.879L926.878 554.788H925.061L924.5 553.022Z" fill="white"/>
<path d="M1812.5 446.711L1811.94 448.477H1810.12L1811.59 449.568L1811.03 451.334L1812.5 450.243L1813.97 451.334L1813.41 449.568L1814.88 448.477H1813.06L1812.5 446.711Z" fill="white"/>
<path d="M353.5 79L352.939 80.7275H351.122L352.592 81.7951L352.031 83.5225L353.5 82.4549L354.969 83.5225L354.408 81.7951L355.878 80.7275H354.061L353.5 79Z" fill="white"/>
<circle cx="964" cy="360" r="297.6" fill="white" fill-opacity="0.05"/>
<path d="M1313.68 360C1313.68 553.123 1157.12 709.68 964 709.68C770.877 709.68 614.32 553.123 614.32 360C614.32 166.877 770.877 10.32 964 10.32C1157.12 10.32 1313.68 166.877 1313.68 360Z" fill="white" fill-opacity="0.05"/>
<path d="M1365.76 360C1365.76 581.886 1185.89 761.76 964 761.76C742.114 761.76 562.24 581.886 562.24 360C562.24 138.114 742.114 -41.76 964 -41.76C1185.89 -41.76 1365.76 138.114 1365.76 360Z" fill="white" fill-opacity="0.05"/>
<path d="M1417.84 360C1417.84 610.649 1214.65 813.84 964 813.84C713.351 813.84 510.16 610.649 510.16 360C510.16 109.351 713.351 -93.84 964 -93.84C1214.65 -93.84 1417.84 109.351 1417.84 360Z" fill="white" fill-opacity="0.05"/>
<path d="M1469.92 360C1469.92 639.412 1243.41 865.92 964 865.92C684.588 865.92 458.08 639.412 458.08 360C458.08 80.5882 684.588 -145.92 964 -145.92C1243.41 -145.92 1469.92 80.5882 1469.92 360Z" fill="white" fill-opacity="0.05"/>
<path d="M1522 360C1522 668.175 1272.17 918 964 918C655.825 918 406 668.175 406 360C406 51.8252 655.825 -198 964 -198C1272.17 -198 1522 51.8252 1522 360Z" fill="white" fill-opacity="0.05"/>
<path d="M849.749 837.593C1021.47 929.563 1076.25 773.018 1189.54 756.422C1282.52 742.8 1386.66 823.281 1336.72 901.837C1277.62 967.76 400.974 1028.28 637.201 826.18C755.722 724.781 780.566 800.541 849.749 837.593Z" fill="#182744" fill-opacity="0.7"/>
<path d="M1945.53 401.551C1921.27 365.868 1994.44 240.056 2082.77 300.255C2123.07 327.721 2259.35 224.677 2263.72 332.867C2238.36 463.415 2168.09 403.105 2127.48 393.602C2054.38 376.497 1992.05 469.963 1945.53 401.551Z" fill="#182744" fill-opacity="0.7"/>
<g filter="url(#filter1_b_1_3)">
<circle cx="964" cy="360" r="245" fill="#F2F2F2"/>
</g>
<g filter="url(#filter2_b_1_3)">
<ellipse cx="952.702" cy="345.702" rx="228.702" ry="228.702" fill="white"/>
</g>
<path opacity="0.2" d="M994.72 307.809C1001.19 316.493 1001.72 329.235 992.962 337.375C987.328 342.611 979.047 343.824 971.432 342.738C970.423 342.594 969.424 342.422 968.439 342.221C960.363 340.578 953.073 335.781 948.69 328.801C942.967 319.687 941.793 309.032 951.739 301.624C965.431 291.426 986.386 296.618 994.72 307.809Z" fill="#888888"/>
<path opacity="0.2" d="M895.556 288.993C911.686 310.65 908.908 345.321 876.214 362.608C869.781 366.01 862.543 367.631 855.268 367.841C843.011 368.193 830.959 366.583 820.307 363.395C811.887 360.875 804.316 356.005 798.542 349.381C780.285 328.438 772.788 299.555 799.992 279.294C831.512 255.818 877.909 265.299 895.556 288.993Z" fill="#888888"/>
<path opacity="0.2" d="M954.757 213.243C964.047 225.716 963.14 245.208 946.478 256.369C940.432 260.419 933.036 261.961 925.762 261.74C921.512 261.612 917.349 261.106 913.406 260.268C904.809 258.439 897.011 253.557 891.926 246.389C883.142 234.007 880.912 218.494 895.973 207.277C915.362 192.836 943.902 198.668 954.757 213.243Z" fill="#888888"/>
<path opacity="0.2" d="M943.704 571.776C945.439 574.104 945.455 577.615 942.907 579.975C941.234 581.524 938.646 581.981 936.383 581.706C933.649 581.374 931.344 579.846 929.759 577.594C927.963 575.041 927.134 572.015 929.892 569.96C933.902 566.974 941.459 568.761 943.704 571.776Z" fill="#888888"/>
<path opacity="0.2" d="M988.081 126.959C994.855 127.257 1003.96 130.245 1010.09 134.317C1018.4 139.833 1010.78 147.986 1001.07 145.76C998.56 145.185 996.032 144.583 993.714 144.154C988.969 143.276 984.098 143.875 979.321 144.561C967.152 146.311 954.183 149.318 954.49 142.327C954.86 133.915 975.36 126.4 988.081 126.959Z" fill="#888888"/>
<path opacity="0.2" d="M1171.12 308.906C1165.45 321.479 1147.97 322.366 1149.14 308.622C1149.57 303.441 1150.24 296.689 1149.96 287.938C1149.81 283.003 1150.19 277.721 1147.74 273.43C1145.92 270.219 1142.94 267.413 1139.9 264.869C1130.74 257.186 1134.7 246.66 1146.16 243.275C1157.61 239.895 1170.13 241.672 1175.15 259.739C1179.88 276.762 1177 295.883 1171.12 308.906Z" fill="#888888"/>
<path opacity="0.2" d="M894.38 561.521C897.578 565.814 897.608 572.289 892.911 576.639C889.826 579.496 885.054 580.338 880.88 579.831C875.839 579.219 871.59 576.401 868.667 572.249C865.354 567.542 863.826 561.962 868.912 558.174C876.306 552.667 890.24 555.963 894.38 561.521Z" fill="#888888"/>
<path opacity="0.2" d="M1104.38 183.873C1108.31 189.154 1109.47 196.304 1106.13 201.3C1102.7 206.448 1095.19 206.864 1089.24 205.167C1084.04 203.686 1079.75 200.321 1076.39 196.085C1070.92 189.18 1067.15 180.711 1073.31 176.12C1081.45 170.058 1098.65 176.18 1104.38 183.873Z" fill="#888888"/>
<path opacity="0.2" d="M820.635 490.753C826.926 497.454 830.832 506.13 829.843 512.899C828.47 522.295 815.617 523.26 806.573 520.367C805.812 520.124 805.055 519.864 804.303 519.587C798.901 517.602 794.128 514.246 789.941 510.299C778.84 499.834 768.256 485.725 775.721 478.717C784.661 470.325 810.162 479.597 820.635 490.753Z" fill="#888888"/>
<path opacity="0.2" d="M1032.8 572.922C1032.8 580.873 1029.2 586.937 1018.49 585.972C1014.37 585.6 1010.51 583.9 1006.55 582.688C1001.45 581.126 999.162 581.26 995.553 578.235C991.831 575.117 989.647 569.967 992.651 566.153C993.621 564.922 994.842 563.709 996.222 562.569C1007.92 552.91 1032.8 557.755 1032.8 572.922Z" fill="#888888"/>
<path opacity="0.2" d="M1127.17 508.933C1129.28 519.826 1120.3 528.915 1105.58 530.062C1100.18 530.483 1094.84 528.984 1089.48 528.218C1088.26 528.044 1087.18 527.928 1086.19 527.828C1072.62 526.461 1064.94 508.5 1077.23 502.598C1083.16 499.756 1090.94 497.797 1098.34 496.364C1115.21 493.099 1124.7 496.154 1127.17 508.933Z" fill="#888888"/>
<path d="M1135.17 -68.9381C1020.59 -76.3671 1037.47 -187.71 938.351 -178.246C843.248 -169.166 782.046 -274.002 986.547 -258.622C1125.2 -248.193 1049.72 -162.128 1154.57 -189.938C1254.13 -216.349 1419.07 -50.5315 1135.17 -68.9381Z" fill="#8FA0C0" fill-opacity="0.7"/>
</g>
<path d="M493.617 704.284C304.552 675.551 196.443 687.715 4 704.284V1080H791.885H1924V704.284C1894.45 715.856 1867.3 715.073 1813.59 710.032C1698.46 688.203 1623.05 682.541 1435.88 704.284C1297.81 724.288 1146.61 725.776 1079.16 710.032C1011.71 694.289 1006.13 687.943 884.312 704.284C813.35 714.858 786.887 722.513 493.617 704.284Z" fill="url(#paint1_linear_1_3)"/>
<g opacity="0.4" filter="url(#filter3_bf_1_3)">
<ellipse rx="297.6" ry="169.067" transform="matrix(1 0 0 -1 964 894)" fill="white" fill-opacity="0.05"/>
<path d="M1313.68 894C1313.68 784.287 1157.12 695.347 964 695.347C770.877 695.347 614.32 784.287 614.32 894C614.32 1003.71 770.877 1092.65 964 1092.65C1157.12 1092.65 1313.68 1003.71 1313.68 894Z" fill="white" fill-opacity="0.05"/>
<path d="M1365.76 894C1365.76 767.947 1185.89 665.76 964 665.76C742.114 665.76 562.24 767.947 562.24 894C562.24 1020.05 742.114 1122.24 964 1122.24C1185.89 1122.24 1365.76 1020.05 1365.76 894Z" fill="white" fill-opacity="0.05"/>
<path d="M1417.84 894C1417.84 751.606 1214.65 636.173 964 636.173C713.351 636.173 510.16 751.606 510.16 894C510.16 1036.39 713.351 1151.83 964 1151.83C1214.65 1151.83 1417.84 1036.39 1417.84 894Z" fill="white" fill-opacity="0.05"/>
<path d="M1469.92 894C1469.92 735.266 1243.41 606.587 964 606.587C684.588 606.587 458.08 735.266 458.08 894C458.08 1052.73 684.588 1181.41 964 1181.41C1243.41 1181.41 1469.92 1052.73 1469.92 894Z" fill="white" fill-opacity="0.05"/>
<path d="M1522 894C1522 718.926 1272.17 577 964 577C655.825 577 406 718.926 406 894C406 1069.07 655.825 1211 964 1211C1272.17 1211 1522 1069.07 1522 894Z" fill="white" fill-opacity="0.05"/>
<path d="M1153.67 1148.42C1036.52 1152.64 1053.78 1215.89 952.442 1210.52C855.209 1205.36 792.636 1264.92 1001.72 1256.18C1143.48 1250.25 1066.31 1201.36 1173.5 1217.16C1275.3 1232.16 1443.92 1137.96 1153.67 1148.42Z" fill="#8FA0C0" fill-opacity="0.7"/>
<g filter="url(#filter4_b_1_3)">
<ellipse rx="245" ry="139.185" transform="matrix(1 0 0 -1 964 894)" fill="#F2F2F2"/>
</g>
<g filter="url(#filter5_b_1_3)">
<ellipse rx="228.702" ry="129.926" transform="matrix(1 0 0 -1 952.702 902.123)" fill="white"/>
</g>
<path opacity="0.2" d="M994.72 923.65C1001.32 918.614 1001.74 911.177 992.407 906.57C986.991 903.896 978.579 903.19 970.982 903.844C960.922 904.71 951.344 908.164 946.7 913.786C942.85 918.447 943.088 923.503 951.739 927.163C965.431 932.957 986.386 930.007 994.72 923.65Z" fill="#888888"/>
<path opacity="0.2" d="M895.556 934.339C911.625 922.082 908.929 902.488 876.583 892.63C869.944 890.607 862.335 889.632 854.479 889.534C844.45 889.41 834.576 890.029 825.513 891.273C813.672 892.898 802.354 896.905 794.568 902.826C779.344 914.402 774.86 929.216 799.992 939.849C831.512 953.186 877.909 947.8 895.556 934.339Z" fill="#888888"/>
<path opacity="0.2" d="M954.757 977.373C963.985 970.333 963.152 959.36 946.807 952.999C940.607 950.587 932.842 949.649 924.922 949.839C922.773 949.89 920.648 949.996 918.565 950.153C906.676 951.052 894.537 955.066 888.631 961.612C882.857 968.013 883.035 975.288 895.973 980.762C915.362 988.966 943.902 985.653 954.757 977.373Z" fill="#888888"/>
<path opacity="0.2" d="M943.704 773.69C945.534 772.294 945.451 770.15 942.461 768.816C940.978 768.155 938.781 767.919 936.787 768.024C933.808 768.182 931.054 769.171 929.339 770.746C927.851 772.113 927.36 773.65 929.892 774.721C933.902 776.418 941.459 775.403 943.704 773.69Z" fill="#888888"/>
<path opacity="0.2" d="M988.081 1026.39C993.847 1026.25 1001.31 1024.99 1007.18 1023.2C1016.1 1020.47 1010.94 1014.43 1001.61 1015.64C995.83 1016.39 989.845 1017.26 986.521 1016.85C972.97 1016.33 954.12 1012.88 954.49 1017.66C954.86 1022.44 975.36 1026.71 988.081 1026.39Z" fill="#888888"/>
<path opacity="0.2" d="M1168.35 920.002C1162.77 914.737 1147.99 914.13 1148.94 921.769C1149.19 923.817 1149.7 926.374 1149.92 929.552C1150.35 935.788 1149.22 943.293 1141.97 947.021C1141.47 947.281 1140.96 947.536 1140.44 947.786C1131.29 952.212 1133.81 957.64 1142.36 959.563C1154.71 962.342 1169.57 962.375 1175.15 950.958C1180.57 939.865 1175.99 927.204 1168.35 920.002Z" fill="#888888"/>
<path opacity="0.2" d="M894.38 779.516C897.755 776.942 897.601 772.988 892.088 770.529C889.354 769.31 885.303 768.874 881.625 769.068C876.132 769.359 871.054 771.183 867.892 774.087C865.148 776.608 864.242 779.442 868.912 781.417C876.306 784.546 890.24 782.674 894.38 779.516Z" fill="#888888"/>
<path opacity="0.2" d="M1104.38 994.058C1108.64 990.802 1109.65 986.297 1105.18 983.461C1101.74 981.274 1095.55 981.037 1090.13 981.824C1084.32 982.668 1079.3 984.873 1075.48 987.79C1070.52 991.577 1067.49 996.001 1073.31 998.462C1081.45 1001.91 1098.65 998.428 1104.38 994.058Z" fill="#888888"/>
<path opacity="0.2" d="M820.635 819.719C826.633 816.089 830.464 811.439 829.949 807.681C829.155 801.882 815.336 801.19 805.543 803.089C799.363 804.287 793.783 806.508 789.046 809.1C778.283 814.989 768.457 822.683 775.721 826.557C784.661 831.325 810.162 826.057 820.635 819.719Z" fill="#888888"/>
<path opacity="0.2" d="M1032.8 773.039C1032.8 767.752 1027.86 763.934 1012.38 766.268C1003.64 768.393 1000.82 767.886 996.804 769.474C992.363 771.232 990.587 775.944 994.795 778.205C995.524 778.596 996.318 778.978 997.159 779.343C1009 784.487 1032.8 785.953 1032.8 773.039Z" fill="#888888"/>
<path opacity="0.2" d="M1127.17 809.391C1129.65 802.131 1116.86 796.282 1097.45 797.473C1096.88 797.563 1096.33 797.645 1095.8 797.72C1077.49 800.347 1070.13 812.308 1087.26 815.065C1090.86 815.645 1094.65 816.125 1098.34 816.532C1115.21 818.386 1124.7 816.651 1127.17 809.391Z" fill="#888888"/>
<path d="M1959.01 870.395C1934.21 890.666 2009.01 962.14 2099.32 927.941C2140.53 912.338 2279.86 970.877 2284.33 909.414C2258.4 835.25 2186.55 869.512 2145.03 874.91C2070.29 884.628 2006.58 831.53 1959.01 870.395Z" fill="#182744" fill-opacity="0.7"/>
</g>
</g>
<defs>
<filter id="filter0_d_1_3" x="0" y="0" width="1928" height="1088" filterUnits="userSpaceOnUse" color-interpolation-filters="sRGB">
<feFlood flood-opacity="0" result="BackgroundImageFix"/>
<feColorMatrix in="SourceAlpha" type="matrix" values="0 0 0 0 0 0 0 0 0 0 0 0 0 0 0 0 0 0 127 0" result="hardAlpha"/>
<feOffset dy="4"/>
<feGaussianBlur stdDeviation="2"/>
<feComposite in2="hardAlpha" operator="out"/>
<feColorMatrix type="matrix" values="0 0 0 0 0 0 0 0 0 0 0 0 0 0 0 0 0 0 0.25 0"/>
<feBlend mode="normal" in2="BackgroundImageFix" result="effect1_dropShadow_1_3"/>
<feBlend mode="normal" in="SourceGraphic" in2="effect1_dropShadow_1_3" result="shape"/>
</filter>
<filter id="filter1_b_1_3" x="715" y="111" width="498" height="498" filterUnits="userSpaceOnUse" color-interpolation-filters="sRGB">
<feFlood flood-opacity="0" result="BackgroundImageFix"/>
<feGaussianBlur in="BackgroundImage" stdDeviation="2"/>
<feComposite in2="SourceAlpha" operator="in" result="effect1_backgroundBlur_1_3"/>
<feBlend mode="normal" in="SourceGraphic" in2="effect1_backgroundBlur_1_3" result="shape"/>
</filter>
<filter id="filter2_b_1_3" x="720" y="113" width="465.403" height="465.403" filterUnits="userSpaceOnUse" color-interpolation-filters="sRGB">
<feFlood flood-opacity="0" result="BackgroundImageFix"/>
<feGaussianBlur in="BackgroundImage" stdDeviation="2"/>
<feComposite in2="SourceAlpha" operator="in" result="effect1_backgroundBlur_1_3"/>
<feBlend mode="normal" in="SourceGraphic" in2="effect1_backgroundBlur_1_3" result="shape"/>
</filter>
<filter id="filter3_bf_1_3" x="-545" y="557" width="2849.33" height="720.056" filterUnits="userSpaceOnUse" color-interpolation-filters="sRGB">
<feFlood flood-opacity="0" result="BackgroundImageFix"/>
<feGaussianBlur in="BackgroundImage" stdDeviation="10"/>
<feComposite in2="SourceAlpha" operator="in" result="effect1_backgroundBlur_1_3"/>
<feBlend mode="normal" in="SourceGraphic" in2="effect1_backgroundBlur_1_3" result="shape"/>
<feGaussianBlur stdDeviation="10" result="effect2_foregroundBlur_1_3"/>
</filter>
<filter id="filter4_b_1_3" x="715" y="750.815" width="498" height="286.369" filterUnits="userSpaceOnUse" color-interpolation-filters="sRGB">
<feFlood flood-opacity="0" result="BackgroundImageFix"/>
<feGaussianBlur in="BackgroundImage" stdDeviation="2"/>
<feComposite in2="SourceAlpha" operator="in" result="effect1_backgroundBlur_1_3"/>
<feBlend mode="normal" in="SourceGraphic" in2="effect1_backgroundBlur_1_3" result="shape"/>
</filter>
<filter id="filter5_b_1_3" x="720" y="768.197" width="465.403" height="267.851" filterUnits="userSpaceOnUse" color-interpolation-filters="sRGB">
<feFlood flood-opacity="0" result="BackgroundImageFix"/>
<feGaussianBlur in="BackgroundImage" stdDeviation="2"/>
<feComposite in2="SourceAlpha" operator="in" result="effect1_backgroundBlur_1_3"/>
<feBlend mode="normal" in="SourceGraphic" in2="effect1_backgroundBlur_1_3" result="shape"/>
</filter>
<linearGradient id="paint0_linear_1_3" x1="960" y1="0" x2="960" y2="736" gradientUnits="userSpaceOnUse">
<stop stop-color="#5C0F5E"/>
<stop offset="0.515625" stop-color="#332257"/>
<stop offset="1" stop-color="#576E9A"/>
</linearGradient>
<linearGradient id="paint1_linear_1_3" x1="964" y1="687" x2="964" y2="841.716" gradientUnits="userSpaceOnUse">
<stop stop-color="#314075"/>
<stop offset="1" stop-color="#192757"/>
</linearGradient>
<clipPath id="clip0_1_3">
<rect width="1920" height="1080" fill="white" transform="translate(4)"/>
</clipPath>
<clipPath id="clip1_1_3">
<rect width="1920" height="736" fill="white" transform="translate(4)"/>
</clipPath>
</defs>
</svg>
